<?xml version="1.0" encoding="UTF-8"?>
<svg
  viewBox="0 0 85.77 49.69"
  xmlns="http://www.w3.org/2000/svg"
  shape-rendering="geometricPrecision"
>

<style>
  .logo { fill: #d7e8ee; }
</style>

<polygon class="logo" points="30.26 41.38 16.48 41.38 20.61 29.97 26.14 29.97"/>

<polygon class="logo"
points="46.74 49.08 35.59 49.08 32.91 41.65 32.83 41.44 28.71 30.02 28.63 29.8 24.67 18.86 24.56 18.54 23.44 15.44 23.32 15.13 23.21 15.44 22.17 18.31 22.05 18.63 18.02 29.8 17.94 30.02 13.81 41.44 13.73 41.65 11.05 49.08 0 49.08 2.68 41.65 2.76 41.44 6.89 30.02 6.97 29.8 14.03 10.25 14.11 10.03 16.53 3.34 16.64 3.03 17.68 0.16 17.7 0.11 29.04 0.11 30.13 3.12 30.25 3.44 30.25 3.44 32.63 10.03 32.71 10.25 39.77 29.8 39.85 30.02 43.98 41.44 44.06 41.65"/>

<path class="logo"
d="M78.11,29.73c-.08.07-.17.15-.25.22-2.35,1.98-5.41,3.38-9.05,4.08-2.52.48-4.88.35-7-.39v-10.53c1.53.99,3.46,1.43,5.5,1.07,2.95-.53,5.33-2.8,5.87-5.74.71-3.89-1.86-7.36-5.47-8.24-.58-.14-1.19-.22-1.81-.22h-6.9v39.05h-10.63V0h19.34c8.49,0,15.37,7.36,15.66,16.76.17,5.39-1.71,9.86-5.25,12.97Z"/>

<!-- Brand dot (always same color) -->
<path
d="m85.27 43.07c0 3.37-2.74 6.11-6.12 6.11s-6.11-2.74-6.11-6.11 2.74-6.12 6.11-6.12 6.12 2.74 6.12 6.12z"
fill="oklch(0.55 0.15 190)"
/>

</svg>
